# xmcd
#
# Track frame offsets:
#	150
#	8909
#	32255
#	54030
#	79288
#	99753
#	120741
#	142171
#	165506
#	188186
#	213110
#	234850
#	254211
#	272001
#	295817
#	315457
#	335219
#
# Disc length: 4696 seconds
#
# Revision: 1
# Processed by: cddbd v1.5.1PL0 Copyright (c) Steve Scherf et al.
# Submitted via: CDex 1.50Beta5
#
DISCID=e7125611
DTITLE=Skoop On Somebody - Singles 2002-1997
DYEAR=1900
DGENRE=Pop
TTITLE0=ぼくが地球を救う〜Sounds Of Spirit〜
TTITLE1=Tears of JOY
TTITLE2=a tommorow song
TTITLE3=sha la la
TTITLE4=潮騒
TTITLE5=Still
TTITLE6=eternal snow
TTITLE7=線香花火
TTITLE8=ama-oto
TTITLE9=Amanogawa
TTITLE10=Over and Over
TTITLE11=Everlastiong Love
TTITLE12=壊したい
TTITLE13=Mood 4 Luv
TTITLE14=Nice'sn Slow
TTITLE15=バラ色
TTITLE16=No Make de On The Bed
EXTD=
EXTT0=
EXTT1=
EXTT2=
EXTT3=
EXTT4=
EXTT5=
EXTT6=
EXTT7=
EXTT8=
EXTT9=
EXTT10=
EXTT11=
EXTT12=
EXTT13=
EXTT14=
EXTT15=
EXTT16=
PLAYORDER=
